<svg xmlns="http://www.w3.org/2000/svg" viewBox="0 0 1200 630" width="1200" height="630">
  <defs>
    <linearGradient id="bg" x1="0" y1="0" x2="1" y2="1">
      <stop offset="0%" stop-color="#0F172A"/>
      <stop offset="60%" stop-color="#0F172A"/>
      <stop offset="100%" stop-color="#10B98120"/>
    </linearGradient>
    <linearGradient id="grid" x1="0" y1="0" x2="0" y2="1">
      <stop offset="0%" stop-color="#10B981" stop-opacity="0.06"/>
      <stop offset="100%" stop-color="#10B981" stop-opacity="0.02"/>
    </linearGradient>
  </defs>

  <!-- Background -->
  <rect width="1200" height="630" fill="url(#bg)"/>

  <!-- Subtle grid lines -->
  <g stroke="#10B981" stroke-opacity="0.07" stroke-width="1">
    <line x1="0" y1="105" x2="1200" y2="105"/>
    <line x1="0" y1="210" x2="1200" y2="210"/>
    <line x1="0" y1="315" x2="1200" y2="315"/>
    <line x1="0" y1="420" x2="1200" y2="420"/>
    <line x1="0" y1="525" x2="1200" y2="525"/>
    <line x1="200" y1="0" x2="200" y2="630"/>
    <line x1="400" y1="0" x2="400" y2="630"/>
    <line x1="600" y1="0" x2="600" y2="630"/>
    <line x1="800" y1="0" x2="800" y2="630"/>
    <line x1="1000" y1="0" x2="1000" y2="630"/>
  </g>

  <!-- Bull icon (centered, large, subtle) -->
  <g transform="translate(450, 115) scale(0.6)" opacity="0.12">
    <path
      d="M 256 186 L 210 176 L 100 96 L 140 196 L 60 226 L 140 256 L 180 336 L 200 406 L 256 416 L 312 406 L 332 336 L 372 256 L 452 226 L 372 196 L 412 96 L 302 176 Z"
      fill="#10B981"
    />
  </g>

  <!-- Brand text -->
  <text x="600" y="540" text-anchor="middle" font-family="monospace" font-size="14" fill="#10B981" opacity="0.3" letter-spacing="8">BULLORBS.COM</text>
</svg>
